<svg xmlns="http://www.w3.org/2000/svg" xmlns:xlink="http://www.w3.org/1999/xlink" width="709" zoomAndPan="magnify" viewBox="0 0 531.75 580.499983" height="774" preserveAspectRatio="xMidYMid meet" version="1.0"><defs><clipPath id="1bbe4b93c5"><path d="M 147.957031 146.800781 L 340.371094 146.800781 L 340.371094 366.464844 L 147.957031 366.464844 Z M 147.957031 146.800781 " clip-rule="nonzero"/></clipPath><clipPath id="6d4e83d131"><path d="M 111.726562 163.582031 L 340.371094 163.582031 L 340.371094 366.464844 L 111.726562 366.464844 Z M 111.726562 163.582031 " clip-rule="nonzero"/></clipPath><clipPath id="fcda6b3a52"><path d="M 75.542969 76.183594 L 456.394531 76.183594 L 456.394531 504.257812 L 75.542969 504.257812 Z M 75.542969 76.183594 " clip-rule="nonzero"/></clipPath><clipPath id="ac1c9a70d9"><path d="M 85.207031 85.917969 L 448.8125 85.917969 L 448.8125 493.855469 L 85.207031 493.855469 Z M 85.207031 85.917969 " clip-rule="nonzero"/></clipPath><clipPath id="14b3d33ad2"><path d="M 80.507812 80.644531 L 453.863281 80.644531 L 453.863281 499.777344 L 80.507812 499.777344 Z M 80.507812 80.644531 " clip-rule="nonzero"/></clipPath><clipPath id="dd5b117b59"><path d="M 210 274.464844 L 322 274.464844 L 322 321 L 210 321 Z M 210 274.464844 " clip-rule="nonzero"/></clipPath></defs><g clip-path="url(#1bbe4b93c5)"><path fill="#040606" d="M 322.769531 348.945312 L 208.449219 348.945312 L 208.449219 234.695312 L 322.769531 234.695312 Z M 164.480469 287.417969 L 164.480469 199.542969 L 252.4375 199.542969 L 252.4375 217.109375 L 199.660156 217.109375 C 194.808594 217.109375 190.871094 221.046875 190.871094 225.914062 L 190.871094 287.417969 Z M 129.324219 234.695312 L 129.324219 164.390625 L 199.660156 164.390625 L 199.660156 181.957031 L 155.691406 181.957031 C 150.839844 181.957031 146.902344 185.890625 146.902344 190.757812 L 146.902344 234.695312 Z M 331.582031 217.109375 L 270.015625 217.109375 L 270.015625 190.757812 C 270.015625 185.890625 266.078125 181.957031 261.226562 181.957031 L 217.257812 181.957031 L 217.257812 155.605469 C 217.257812 150.738281 213.320312 146.800781 208.449219 146.800781 L 120.515625 146.800781 C 115.664062 146.800781 111.726562 150.738281 111.726562 155.605469 L 111.726562 243.480469 C 111.726562 248.328125 115.664062 252.265625 120.515625 252.265625 L 146.902344 252.265625 L 146.902344 296.203125 C 146.902344 301.070312 150.839844 305.003906 155.691406 305.003906 L 190.871094 305.003906 L 190.871094 357.726562 C 190.871094 362.574219 194.808594 366.511719 199.660156 366.511719 L 331.582031 366.511719 C 336.433594 366.511719 340.371094 362.574219 340.371094 357.726562 L 340.371094 225.914062 C 340.371094 221.046875 336.433594 217.109375 331.582031 217.109375 " fill-opacity="1" fill-rule="nonzero"/></g><g clip-path="url(#6d4e83d131)"><path fill="#040606" d="M 322.769531 348.945312 L 208.449219 348.945312 L 208.449219 234.695312 L 322.769531 234.695312 Z M 164.480469 287.417969 L 164.480469 199.542969 L 252.4375 199.542969 L 252.4375 217.109375 L 199.660156 217.109375 C 194.808594 217.109375 190.871094 221.046875 190.871094 225.914062 L 190.871094 287.417969 Z M 129.324219 234.695312 L 129.324219 164.390625 L 199.660156 164.390625 L 199.660156 181.957031 L 155.691406 181.957031 C 150.839844 181.957031 146.902344 185.890625 146.902344 190.757812 L 146.902344 234.695312 Z M 331.582031 217.109375 L 270.015625 217.109375 L 270.015625 190.757812 C 270.015625 185.890625 266.078125 181.957031 261.226562 181.957031 L 217.257812 181.957031 L 217.257812 155.605469 C 217.257812 150.738281 213.320312 146.800781 208.449219 146.800781 L 120.515625 146.800781 C 115.664062 146.800781 111.726562 150.738281 111.726562 155.605469 L 111.726562 243.480469 C 111.726562 248.328125 115.664062 252.265625 120.515625 252.265625 L 146.902344 252.265625 L 146.902344 296.203125 C 146.902344 301.070312 150.839844 305.003906 155.691406 305.003906 L 190.871094 305.003906 L 190.871094 357.726562 C 190.871094 362.574219 194.808594 366.511719 199.660156 366.511719 L 331.582031 366.511719 C 336.433594 366.511719 340.371094 362.574219 340.371094 357.726562 L 340.371094 225.914062 C 340.371094 221.046875 336.433594 217.109375 331.582031 217.109375 " fill-opacity="1" fill-rule="nonzero"/></g><g clip-path="url(#fcda6b3a52)"><path fill="#ffffff" d="M 278.28125 102.671875 C 271.636719 98.265625 262.832031 98.265625 256.230469 102.671875 L 110.800781 186.507812 C 101.996094 190.917969 99.792969 197.53125 99.792969 206.382812 L 99.792969 374.058594 C 99.792969 382.910156 101.996094 389.523438 110.800781 393.933594 L 256.230469 477.769531 C 262.832031 482.175781 271.636719 482.175781 278.28125 477.769531 L 423.710938 393.933594 C 430.3125 389.523438 434.714844 382.910156 434.714844 374.058594 L 434.714844 206.382812 C 434.714844 197.53125 430.3125 190.917969 423.710938 186.507812 Z M 289.285156 82.796875 L 434.714844 166.632812 C 450.125 175.488281 456.765625 188.714844 456.765625 206.382812 L 456.765625 374.058594 C 456.765625 391.730469 450.125 404.953125 434.714844 413.769531 L 289.285156 497.644531 C 276.078125 506.460938 258.429688 506.460938 243.023438 497.644531 L 97.59375 413.769531 C 84.347656 404.953125 75.542969 391.730469 75.542969 374.058594 L 75.542969 206.382812 C 75.542969 188.714844 84.347656 175.488281 97.59375 166.632812 L 243.023438 82.796875 C 258.429688 73.980469 276.078125 73.980469 289.285156 82.796875 " fill-opacity="1" fill-rule="nonzero"/></g><g clip-path="url(#ac1c9a70d9)"><path fill="#ffffff" d="M 278.761719 111.160156 C 272.421875 106.960938 264.015625 106.960938 257.710938 111.160156 L 118.867188 191.054688 C 110.460938 195.253906 108.359375 201.554688 108.359375 209.996094 L 108.359375 369.777344 C 108.359375 378.21875 110.460938 384.519531 118.867188 388.71875 L 257.710938 468.613281 C 264.015625 472.8125 272.421875 472.8125 278.761719 468.613281 L 417.609375 388.71875 C 423.914062 384.519531 428.117188 378.21875 428.117188 369.777344 L 428.117188 209.996094 C 428.117188 201.554688 423.914062 195.253906 417.609375 191.054688 Z M 289.269531 92.21875 L 428.117188 172.113281 C 442.828125 180.550781 449.167969 193.152344 449.167969 209.996094 L 449.167969 369.777344 C 449.167969 386.621094 442.828125 399.222656 428.117188 407.625 L 289.269531 487.554688 C 276.660156 495.957031 259.8125 495.957031 245.101562 487.554688 L 106.257812 407.625 C 93.609375 399.222656 85.207031 386.621094 85.207031 369.777344 L 85.207031 209.996094 C 85.207031 193.152344 93.609375 180.550781 106.257812 172.113281 L 245.101562 92.21875 C 259.8125 83.816406 276.660156 83.816406 289.269531 92.21875 " fill-opacity="1" fill-rule="nonzero"/></g><g clip-path="url(#14b3d33ad2)"><path fill="#040606" d="M 279.253906 106.578125 C 272.746094 102.261719 264.113281 102.261719 257.640625 106.578125 L 115.070312 188.664062 C 106.441406 192.980469 104.28125 199.457031 104.28125 208.125 L 104.28125 372.296875 C 104.28125 380.964844 106.441406 387.441406 115.070312 391.757812 L 257.640625 473.84375 C 264.113281 478.160156 272.746094 478.160156 279.253906 473.84375 L 421.824219 391.757812 C 428.296875 387.441406 432.613281 380.964844 432.613281 372.296875 L 432.613281 208.125 C 432.613281 199.457031 428.296875 192.980469 421.824219 188.664062 Z M 290.042969 87.117188 L 432.613281 169.203125 C 447.714844 177.875 454.226562 190.824219 454.226562 208.125 L 454.226562 372.296875 C 454.226562 389.597656 447.714844 402.546875 432.613281 411.179688 L 290.042969 493.304688 C 277.097656 501.9375 259.796875 501.9375 244.691406 493.304688 L 102.125 411.179688 C 89.140625 402.546875 80.507812 389.597656 80.507812 372.296875 L 80.507812 208.125 C 80.507812 190.824219 89.140625 177.875 102.125 169.203125 L 244.691406 87.117188 C 259.796875 78.484375 277.097656 78.484375 290.042969 87.117188 " fill-opacity="1" fill-rule="nonzero"/></g><path fill="#000000" d="M 230.097656 291.835938 C 230.074219 291.835938 230.074219 291.859375 230.097656 291.835938 C 230.121094 291.859375 230.121094 291.835938 230.097656 291.835938 Z M 230.097656 291.835938 " fill-opacity="1" fill-rule="nonzero"/><path fill="#000000" d="M 302.027344 291.292969 C 302.003906 291.292969 302.003906 291.316406 302.027344 291.292969 C 302.027344 291.316406 302.027344 291.292969 302.027344 291.292969 Z M 302.027344 291.292969 " fill-opacity="1" fill-rule="nonzero"/><g clip-path="url(#dd5b117b59)"><path fill="#000000" d="M 321.78125 301.996094 C 321.199219 298.210938 318.269531 295.035156 315.292969 292.847656 C 312.675781 290.933594 308.109375 288.953125 305.558594 291.992188 C 305.402344 292.195312 305.539062 292.511719 305.828125 292.445312 C 305.941406 292.421875 306.050781 292.398438 306.140625 292.375 C 306.1875 292.398438 306.230469 292.421875 306.277344 292.421875 C 306.457031 292.421875 306.632812 292.464844 306.835938 292.488281 C 306.949219 292.644531 307.105469 292.757812 307.28125 292.828125 C 309.183594 293.414062 311.511719 295.664062 311.085938 297.851562 C 310.660156 300.035156 308.066406 300.644531 306.1875 300.375 C 302.652344 299.878906 300.234375 296.453125 298.421875 293.683594 C 296.253906 290.347656 294.507812 286.699219 292.136719 283.5 C 292.070312 283.386719 291.980469 283.296875 291.890625 283.183594 C 291.441406 282.488281 290.863281 281.832031 290.347656 281.269531 C 289.363281 280.234375 288.242188 279.308594 287.101562 278.453125 C 284.53125 276.5625 281.53125 275.210938 278.355469 274.804688 C 275.558594 274.464844 272.628906 274.941406 270.277344 276.539062 C 268.511719 277.078125 267.035156 278.429688 265.917969 280.054688 C 264.976562 278.835938 263.8125 277.847656 262.492188 277.28125 C 261.957031 276.945312 261.375 276.652344 260.769531 276.402344 C 257.972656 275.210938 254.886719 275.007812 251.933594 275.726562 C 249.5625 276.3125 247.324219 277.53125 245.398438 279.175781 C 243.699219 280.1875 242.15625 281.449219 240.949219 282.871094 C 238.398438 285.886719 236.652344 289.492188 234.59375 292.847656 C 232.828125 295.753906 230.613281 299.359375 227.257812 300.554688 C 225.375 301.230469 222.582031 301.140625 221.4375 299.246094 C 219.960938 296.925781 222.714844 294.019531 224.863281 293.367188 C 225.0625 293.300781 225.199219 293.1875 225.308594 293.03125 C 225.511719 293.007812 225.691406 292.960938 225.867188 292.960938 C 225.914062 292.960938 225.957031 292.9375 226.003906 292.894531 C 226.113281 292.917969 226.203125 292.9375 226.316406 292.984375 C 226.585938 293.050781 226.742188 292.738281 226.585938 292.535156 C 224.347656 289.875 220.476562 291.113281 217.949219 292.644531 C 215.0625 294.425781 212.355469 297.128906 210.992188 300.304688 C 209.535156 303.683594 209.960938 307.941406 211.707031 311.117188 C 213.496094 314.363281 216.652344 316.660156 219.941406 318.171875 C 235.9375 325.445312 255.15625 317.628906 263.746094 302.714844 C 264.664062 301.117188 265.46875 299.40625 266.183594 297.691406 C 266.429688 298.253906 266.699219 298.820312 266.945312 299.359375 C 270.523438 307.222656 277.191406 313.664062 285 317.222656 C 292.742188 320.761719 301.488281 321.480469 309.566406 318.664062 C 313.03125 317.449219 316.523438 315.601562 318.917969 312.71875 C 321.445312 309.699219 322.382812 305.914062 321.78125 301.996094 Z M 321.78125 301.996094 " fill-opacity="1" fill-rule="nonzero"/></g></svg>